<svg xmlns="http://www.w3.org/2000/svg" width="96" height="96" viewBox="0 0 96 96"><rect width="96" height="96" style="fill:none"/><circle cx="66.3599" cy="29.0386" r="27.7413" style="fill:#ffe281"/><g style="opacity:0.58"><path d="M38.6186,29.0386A27.73,27.73,0,0,0,92.6221,37.92c-11.88-1.79-24.4762-6.4419-34.9422-16.6526C54.2221,17.8942,50.3388,13.87,46.3466,9.8593A27.6255,27.6255,0,0,0,38.6186,29.0386Z" style="fill:#ffd843"/></g><path d="M87.6138,62.304a14.9053,14.9053,0,0,0-11.06-14.3919A10.5668,10.5668,0,0,0,63.4188,33.6494,23.689,23.689,0,0,0,16.94,39.2182a19.162,19.162,0,0,0,3.5252,37.998c.1814,0,.3567-.0221.537-.027v.027H72.8685v-.0084A14.9072,14.9072,0,0,0,87.6138,62.304Z" style="fill:#e4e4e4"/></svg>